<svg viewBox="0 0 128 48" fill="none" xmlns="http://www.w3.org/2000/svg">
<path fill-rule="evenodd" clip-rule="evenodd" d="M33.9884 7.28647C36.5681 7.43879 38.9101 8.84352 40.259 11.0477C41.608 13.2518 41.7933 15.9765 40.7551 18.343C40.6869 18.4965 40.6147 18.6486 40.5373 18.7982C43.0045 20.2581 44.4873 22.9401 44.4116 25.8059C44.3358 28.6717 42.7135 31.2716 40.1726 32.5992C40.1402 36.232 37.6344 39.3744 34.0999 40.2147C33.9591 42.8611 32.3604 45.2104 29.9502 46.3124C27.5401 47.4145 24.7174 47.0869 22.6236 45.4622L22.1553 45.0988V4.52233L22.4557 4.17993C24.1273 2.27031 26.7399 1.47836 29.1904 2.13845C31.6409 2.79853 33.5022 4.79561 33.9884 7.28647Z" fill="white"/>
<path fill-rule="evenodd" clip-rule="evenodd" d="M23.3667 9.69371V44.5124C25.2424 45.9667 27.806 46.1581 29.8769 44.9985C31.9478 43.8389 33.1244 41.5532 32.8647 39.194C36.3159 38.8876 38.9623 35.997 38.9636 32.5323C38.9636 32.3407 38.9518 32.1387 38.9322 31.9131L38.9243 31.837C41.5288 30.8301 43.2343 28.3116 43.2021 25.5193C43.1699 22.7271 41.407 20.2485 38.78 19.3019C40.3596 17.2885 40.6523 14.5504 39.5341 12.2485C38.4158 9.94663 36.0824 8.4843 33.5233 8.48155C33.3199 8.48155 33.1126 8.49204 32.9001 8.51172C32.881 6.2539 31.469 4.24266 29.3519 3.45782C27.2347 2.67297 24.8529 3.27775 23.3667 4.97751V9.70028V9.69371Z" fill="#ED297A"/>
<path fill-rule="evenodd" clip-rule="evenodd" d="M41.9547 25.5963C41.9555 23.17 40.349 21.0365 38.0169 20.3668C35.6848 19.6971 33.1911 20.6531 31.9044 22.7102L30.8549 22.0542C32.2476 19.8293 34.8126 18.6242 37.4143 18.9726C38.41 17.9573 38.9653 16.5903 38.9597 15.1682C38.9597 12.165 36.5252 9.73045 33.522 9.73045C33.3261 9.73012 33.1303 9.74013 32.9355 9.76063L32.7598 9.78161C32.2087 12.1562 30.1466 13.8753 27.7116 13.9901L27.6578 12.7451C29.5156 12.6654 31.0996 11.373 31.5505 9.56894C32.0014 7.76493 31.2118 5.87925 29.61 4.93479C28.0082 3.99032 25.9759 4.21216 24.6156 5.47996H23.3667V9.69371V4.97751C24.8529 3.27775 27.2347 2.67297 29.3519 3.45782C31.469 4.24266 32.881 6.2539 32.9001 8.51172C33.1126 8.49204 33.3199 8.48155 33.5233 8.48155C36.0824 8.4843 38.4158 9.94663 39.5341 12.2485C40.6523 14.5504 40.3596 17.2885 38.78 19.3019C41.407 20.2485 43.1699 22.7271 43.2021 25.5193C43.2343 28.3116 41.5288 30.8301 38.9243 31.837L38.9322 31.913C38.9518 32.1334 38.9636 32.3407 38.9636 32.5323C38.9623 35.997 36.3159 38.8876 32.8647 39.194C33.1257 41.5536 31.9494 43.8404 29.878 45.0004C27.8065 46.1602 25.2421 45.9681 23.3667 44.5124V40.275V43.8577H24.6156C26.0583 44.707 27.8454 44.7186 29.299 43.8881C30.7526 43.0576 31.6502 41.5122 31.6512 39.8381C31.6517 39.6522 31.6408 39.4664 31.6184 39.2819L31.6066 39.1861C29.904 39.0137 28.3322 38.1954 27.2144 36.8995L28.1564 36.0849C29.6418 37.8025 32.0379 38.4165 34.1662 37.625C36.2946 36.8335 37.7073 34.8031 37.7094 32.5323C37.7094 32.4011 37.7094 32.2869 37.7003 32.178C34.087 32.8255 30.6267 30.4406 29.9458 26.8334L31.1711 26.6038C31.6918 29.3619 34.2257 31.2706 37.0203 31.0102C39.815 30.7498 41.9525 28.4057 41.9547 25.599" fill="white"/>
<path fill-rule="evenodd" clip-rule="evenodd" d="M41.9547 25.5963C41.9555 23.17 40.349 21.0365 38.0169 20.3668C35.6848 19.6971 33.1911 20.6531 31.9044 22.7102L30.8549 22.0542C32.2476 19.8293 34.8126 18.6242 37.4143 18.9726C38.41 17.9573 38.9653 16.5903 38.9597 15.1682C38.9597 12.165 36.5252 9.73045 33.522 9.73045C33.3261 9.73012 33.1303 9.74013 32.9355 9.76063L32.7598 9.78161C32.2087 12.1562 30.1466 13.8753 27.7116 13.9901L27.6578 12.7451C29.5156 12.6654 31.0996 11.373 31.5505 9.56894C32.0014 7.76493 31.2118 5.87925 29.61 4.93479C28.0082 3.99032 25.9759 4.21216 24.6156 5.47996H23.3667V9.69371V4.97751C24.8529 3.27775 27.2347 2.67297 29.3519 3.45782C31.469 4.24266 32.881 6.2539 32.9001 8.51172C33.1126 8.49204 33.3199 8.48155 33.5233 8.48155C36.0824 8.4843 38.4158 9.94663 39.5341 12.2485C40.6523 14.5504 40.3596 17.2885 38.78 19.3019C41.407 20.2485 43.1699 22.7271 43.2021 25.5193C43.2343 28.3116 41.5288 30.8301 38.9243 31.837L38.9322 31.913C38.9518 32.1334 38.9636 32.3407 38.9636 32.5323C38.9623 35.997 36.3159 38.8876 32.8647 39.194C33.1257 41.5536 31.9494 43.8404 29.878 45.0004C27.8065 46.1602 25.2421 45.9681 23.3667 44.5124V40.275V43.8577H24.6156C26.0583 44.707 27.8454 44.7186 29.299 43.8881C30.7526 43.0576 31.6502 41.5122 31.6512 39.8381C31.6517 39.6522 31.6408 39.4664 31.6184 39.2819L31.6066 39.1861C29.904 39.0137 28.3322 38.1954 27.2144 36.8995L28.1564 36.0849C29.6418 37.8025 32.0379 38.4165 34.1662 37.625C36.2946 36.8335 37.7073 34.8031 37.7094 32.5323C37.7094 32.4011 37.7094 32.2869 37.7003 32.178C34.087 32.8255 30.6267 30.4406 29.9458 26.8334L31.1711 26.6038C31.6918 29.3619 34.2257 31.2706 37.0203 31.0102C39.815 30.7498 41.9525 28.4057 41.9547 25.599" fill="white"/>
<path fill-rule="evenodd" clip-rule="evenodd" d="M11.5332 7.32519C8.95369 7.47707 6.6116 8.88153 5.26259 11.0855C3.91357 13.2895 3.72832 16.0141 4.76658 18.3804C4.8348 18.5352 4.90696 18.6874 4.98567 18.8369C2.51982 20.2978 1.03815 22.9791 1.11359 25.8442C1.18903 28.7092 2.80975 31.3089 5.34906 32.6379C5.38061 36.2719 7.88639 39.4159 11.4217 40.2573C11.5625 42.9037 13.1613 45.253 15.5715 46.355C17.9816 47.4571 20.8044 47.1295 22.8981 45.5049L23.3664 45.1415V4.56237L23.066 4.21996C21.3946 2.31037 18.7822 1.51826 16.3318 2.17806C13.8813 2.83785 12.0199 4.83454 11.5332 7.32519Z" fill="white"/>
<path fill-rule="evenodd" clip-rule="evenodd" d="M22.1555 9.73183V44.5518C20.2799 46.0098 17.7138 46.2033 15.6407 45.0431C13.5677 43.883 12.3906 41.5945 12.6523 39.2334C9.20154 38.9263 6.55597 36.036 6.55465 32.5717C6.55465 32.3802 6.56515 32.1781 6.58483 31.9525L6.5927 31.8764C3.98803 30.8677 2.2841 28.347 2.31888 25.554C2.35366 22.7611 4.11984 20.2836 6.74881 19.3401C5.17098 17.3279 4.87799 14.5924 5.99386 12.2918C7.10975 9.99111 9.43937 8.52763 11.9963 8.52098C12.1996 8.52098 12.4082 8.53148 12.6195 8.55116C12.6359 6.29133 14.0483 4.27722 16.1674 3.49187C18.2864 2.70652 20.6703 3.31366 22.1555 5.01695V9.73183Z" fill="#1C75DB"/>
<path fill-rule="evenodd" clip-rule="evenodd" d="M3.56743 25.6357C3.56664 23.2094 5.17311 21.0759 7.50524 20.4062C9.83737 19.7365 12.331 20.6926 13.6177 22.7496L14.6672 22.0937C13.2735 19.8663 10.7051 18.6609 8.10129 19.0121C7.1056 17.9967 6.55033 16.6297 6.5559 15.2077C6.55624 13.7652 7.12966 12.382 8.14994 11.3625C9.17029 10.3429 10.5538 9.77047 11.9963 9.77121C12.1925 9.77047 12.3887 9.78007 12.584 9.80003L12.7585 9.82236C13.3105 12.1978 15.3744 13.9166 17.8105 14.0295L17.8643 12.7846C16.0065 12.7048 14.4226 11.4124 13.9717 9.60835C13.5208 7.80436 14.3104 5.91867 15.9121 4.97421C17.514 4.02975 19.5462 4.25159 20.9066 5.51939H22.1555V9.73183V5.01694C20.6692 3.31717 18.2874 2.7124 16.1703 3.49725C14.0532 4.28209 12.6411 6.29333 12.622 8.55115C12.4108 8.53146 12.2022 8.52097 11.9989 8.52097C9.43904 8.52147 7.10435 9.98394 5.98679 12.2869C4.86922 14.5899 5.16511 17.3289 6.74874 19.3401C4.12064 20.2858 2.35662 22.7648 2.32419 25.5577C2.29174 28.3506 3.99771 30.8698 6.60312 31.8764L6.59525 31.9525C6.57557 32.1729 6.56508 32.3802 6.56508 32.5717C6.5659 36.0323 9.20567 38.9213 12.6522 39.2334C12.3912 41.5931 13.5675 43.8799 15.639 45.0398C17.7104 46.1996 20.2748 46.0075 22.1502 44.5518V40.3144V43.8972H20.9013C19.4586 44.7464 17.6715 44.7581 16.2179 43.9276C14.7643 43.097 13.8667 41.5517 13.8657 39.8775C13.8658 39.6917 13.8767 39.5059 13.8985 39.3213L13.9103 39.2256C15.6154 39.0534 17.1893 38.2335 18.3077 36.935L17.3658 36.119C15.8818 37.8411 13.4833 38.4583 11.3525 37.6665C9.22157 36.8747 7.80808 34.841 7.80874 32.5677C7.80874 32.4365 7.80874 32.3224 7.81792 32.2135C11.4335 32.8633 14.8967 30.4764 15.5764 26.8663L14.3577 26.6407C13.8399 29.402 11.3044 31.3146 8.50713 31.054C5.70983 30.7934 3.57132 28.4452 3.57268 25.6357" fill="white"/>
<path d="M24.1587 5.18921V44.4998H21.1587V5.18921H24.1587Z" fill="white"/>
<path d="M59 34.5856V12H63.037V31.2012H72.5031V34.5856H59ZM82.9874 35C81.8041 35 80.7021 34.8043 79.6812 34.4129C78.6604 33.9985 77.7671 33.4114 77.0015 32.6517C76.2358 31.8919 75.6326 30.9709 75.1918 29.8889C74.7741 28.7838 74.5653 27.5291 74.5653 26.1246C74.5653 24.7432 74.7858 23.5 75.2266 22.3949C75.6674 21.2898 76.2475 20.3574 76.9667 19.5976C77.7092 18.8378 78.556 18.2508 79.5072 17.8363C80.4585 17.4219 81.433 17.2147 82.4305 17.2147C83.5907 17.2147 84.6115 17.4105 85.4931 17.8018C86.3748 18.1932 87.1056 18.7457 87.6856 19.4595C88.2889 20.1732 88.7413 21.025 89.0429 22.015C89.3445 23.005 89.4953 24.0871 89.4953 25.2613C89.4953 25.6526 89.4722 26.021 89.4257 26.3664C89.4026 26.7117 89.3678 26.988 89.3213 27.1952H78.4631C78.6488 28.7147 79.1824 29.8889 80.064 30.7177C80.9688 31.5235 82.1173 31.9264 83.5094 31.9264C84.2519 31.9264 84.9362 31.8228 85.5627 31.6156C86.2124 31.3853 86.8503 31.0745 87.4768 30.6832L88.834 33.1697C88.022 33.6992 87.1172 34.1366 86.1195 34.482C85.1219 34.8273 84.0779 35 82.9874 35ZM78.4283 24.5015H86.0151C86.0151 23.1892 85.7251 22.1646 85.1451 21.4279C84.5882 20.6682 83.7182 20.2883 82.5349 20.2883C81.5141 20.2883 80.6208 20.6451 79.8552 21.3589C79.0896 22.0726 78.614 23.1201 78.4283 24.5015ZM100.313 35C99.2456 35 98.2252 34.8043 97.2507 34.4129C96.2763 34.0216 95.4062 33.4459 94.6406 32.6862C93.8973 31.9264 93.3057 30.994 92.8657 29.8889C92.4245 28.7838 92.2045 27.5291 92.2045 26.1246C92.2045 24.7202 92.4245 23.4655 92.8657 22.3604C93.3057 21.2553 93.8973 20.3228 94.6406 19.5631C95.4062 18.8033 96.2763 18.2277 97.2507 17.8363C98.2252 17.4219 99.2456 17.2147 100.313 17.2147C101.38 17.2147 102.401 17.4219 103.376 17.8363C104.373 18.2277 105.243 18.8033 105.986 19.5631C106.728 20.3228 107.32 21.2553 107.761 22.3604C108.224 23.4655 108.457 24.7202 108.457 26.1246C108.457 27.5291 108.224 28.7838 107.761 29.8889C107.32 30.994 106.728 31.9264 105.986 32.6862C105.243 33.4459 104.373 34.0216 103.376 34.4129C102.401 34.8043 101.38 35 100.313 35ZM100.313 31.7538C101.566 31.7538 102.552 31.2472 103.271 30.2342C103.99 29.1982 104.35 27.8283 104.35 26.1246C104.35 24.3979 103.99 23.028 103.271 22.015C102.552 20.979 101.566 20.461 100.313 20.461C99.0604 20.461 98.0735 20.979 97.3551 22.015C96.6591 23.028 96.3111 24.3979 96.3111 26.1246C96.3111 27.8283 96.6591 29.1982 97.3551 30.2342C98.0735 31.2472 99.0604 31.7538 100.313 31.7538ZM112.418 34.5856V17.6291H115.724L116.003 19.9084H116.142C116.907 19.1717 117.732 18.5385 118.613 18.009C119.518 17.4795 120.562 17.2147 121.745 17.2147C123.578 17.2147 124.912 17.8018 125.747 18.976C126.582 20.1271 127 21.7847 127 23.9489V34.5856H122.998V24.467C122.998 23.0625 122.789 22.0726 122.371 21.497C121.954 20.9214 121.269 20.6336 120.318 20.6336C119.576 20.6336 118.915 20.8178 118.334 21.1862C117.778 21.5315 117.14 22.0496 116.42 22.7402V34.5856H112.418Z" fill="white"/>
</svg>
